<?xml version="1.0" encoding="utf-8"?>
<svg width="95px" height="18px" viewBox="0 0 95 18" version="1.1" xmlns:xlink="http://www.w3.org/1999/xlink" xmlns="http://www.w3.org/2000/svg">
  <desc>Created with Lunacy</desc>
  <g id="Deloitte">
    <path d="M8.92182 10.1284C9.36462 10.0326 9.80743 9.89433 10.232 9.74081L10.8394 12.7239C10.2629 12.9981 9.58131 13.2146 8.96249 13.3487C8.36644 13.4774 7.64448 13.5714 6.65671 13.5714C2.77818 13.5714 0 11.1558 0 6.93267C0 3.26941 2.08844 0 6.01154 0C10.0498 0 11.6327 3.10378 11.6327 6.48488C11.6327 7.21241 11.5337 7.90399 11.4778 8.18961L3.9423 8.18961C4.16874 9.67753 5.55149 10.302 7.31783 10.302C7.86442 10.302 8.40223 10.2408 8.92182 10.1284ZM7.88752 5.27947C7.88752 4.48312 7.43626 3.03289 5.94289 3.03289C4.59951 3.03289 3.86193 4.15151 3.86193 5.27947L7.88752 5.27947Z" transform="translate(16.47959 3.877551)" id="Fill-1" fill="#8E94AD" fill-rule="evenodd" stroke="none" />
    <path d="M8.92167 10.1284C9.36449 10.0326 9.80732 9.89433 10.2319 9.74081L10.8394 12.7239C10.2632 12.9981 9.58119 13.2146 8.96299 13.3487C8.36626 13.4774 7.64426 13.5714 6.65676 13.5714C2.77769 13.5714 0 11.1558 0 6.93267C0 3.26941 2.08823 0 6.01155 0C10.0494 0 11.6327 3.10378 11.6327 6.48488C11.6327 7.21241 11.5341 7.90399 11.4781 8.18961L3.94252 8.18961C4.16865 9.67753 5.55148 10.302 7.31759 10.302C7.86421 10.302 8.40172 10.2408 8.92167 10.1284ZM7.88764 5.27947C7.88764 4.48312 7.43635 3.03289 5.9429 3.03289C4.59944 3.03289 3.86182 4.15151 3.86182 5.27947L7.88764 5.27947Z" transform="translate(75.61224 3.877551)" id="Fill-2" fill="#8E94AD" fill-rule="evenodd" stroke="none" />
    <path d="M0 16.4796L4.84694 16.4796L4.84694 0L0 0L0 16.4796Z" transform="translate(29.08163 0.9693878)" id="Fill-3" fill="#8E94AD" stroke="none" />
    <path d="M13.5714 6.66034C13.5714 11.4339 10.1299 13.5714 6.72933 13.5714C2.77362 13.5714 0 10.8638 0 6.8768C0 3.69954 1.85555 0 6.94271 0C11.8845 0 13.5714 3.81798 13.5714 6.66034ZM4.4425 6.78814C4.4425 8.94857 5.37236 10.3453 6.78797 10.3453C8.16992 10.3453 9.0741 8.93956 9.0741 6.76944C9.0741 5.1344 8.47906 3.23025 6.80289 3.23025C5.06565 3.23025 4.4425 5.06755 4.4425 6.78814Z" transform="translate(35.86735 3.877551)" id="Fill-4" fill="#8E94AD" fill-rule="evenodd" stroke="none" />
    <path d="M0 11.6327L4.84694 11.6327L4.84694 0L0 0L0 11.6327Z" transform="translate(50.40816 5.816327)" id="Fill-5" fill="#8E94AD" stroke="none" />
    <path d="M0 2.90816L4.84694 2.90816L4.84694 0L0 0L0 2.90816Z" transform="translate(50.40816 0.9693878)" id="Fill-6" fill="#8E94AD" stroke="none" />
    <path d="M1.59464 0.457436L1.59464 3.82847L0 3.82847L0 6.90016L1.59464 6.90016L1.59464 11.9778C1.59464 14.7706 2.87306 16.4796 5.79139 16.4796C6.33858 16.4796 6.95648 16.4235 7.5258 16.3383C8.0525 16.2595 8.51973 16.1637 8.72426 16.0971C8.72757 16.0938 8.69386 12.8594 8.69386 12.8475C8.56037 12.8937 7.61931 13.0515 7.27534 13.0515C6.94161 13.0515 6.44564 13.0092 6.09142 12.6472C5.83831 12.3891 5.65724 11.9683 5.65724 11.2848L5.65724 6.90016L8.33965 6.90016L8.33965 3.82847C8.33965 3.82847 6.01146 3.82847 5.65724 3.82847C5.65724 3.46477 5.65724 0 5.65724 0L1.59464 0.457436" transform="translate(57.19388 0.9693878)" id="Fill-7" fill="#8E94AD" stroke="none" />
    <path d="M1.59465 0.457436L1.59465 3.82847L0 3.82847L0 6.90016L1.59465 6.90016L1.59465 11.9778C1.59465 14.7706 2.87308 16.4796 5.79175 16.4796C6.33894 16.4796 6.95651 16.4235 7.52518 16.3383C8.05221 16.2595 8.51944 16.1637 8.7243 16.0971C8.72728 16.0938 8.6939 12.8594 8.6939 12.8475C8.56008 12.8937 7.62001 13.0515 7.27537 13.0515C6.94164 13.0515 6.446 13.0092 6.09178 12.6472C5.83867 12.3891 5.65793 11.9683 5.65793 11.2848L5.65793 6.90016L8.33935 6.90016L8.33935 3.82847C8.33935 3.82847 6.01182 3.82847 5.65793 3.82847C5.65793 3.46477 5.65793 0 5.65793 0L1.59465 0.457436" transform="translate(65.91837 0.9693878)" id="Fill-8" fill="#8E94AD" stroke="none" />
    <path d="M0 2.42295C0 1.08466 1.08512 0 2.42312 0C3.76112 0 4.84694 1.08466 4.84694 2.42295C4.84694 3.76228 3.76112 4.84694 2.42312 4.84694C1.08512 4.84694 0 3.76228 0 2.42295" transform="translate(90.15306 12.60204)" id="Fill-9" fill="#8E94AD" stroke="none" />
    <path d="M4.92101 17.449L0 17.449L0 0.196098C1.69585 0.0569424 3.22274 0 4.9404 0C11.6324 0 15.5102 3.13386 15.5102 8.7287C15.5102 13.2076 12.7078 17.0868 5.97287 17.4254C5.6571 17.4412 5.25409 17.449 4.92101 17.449ZM5.66403 14.0537C5.83818 14.0537 6.10998 14.0473 6.29036 14.0328C8.46298 13.8582 10.9946 12.5752 10.9946 8.7287C10.9946 5.04227 8.30094 3.44586 5.77274 3.44586C5.368 3.44586 4.76209 3.47349 4.28498 3.51493C4.28498 3.51493 4.28706 14.0523 4.28498 14.0537L5.66403 14.0537Z" id="Fill-10" fill="#8E94AD" fill-rule="evenodd" stroke="none" />
  </g>
</svg>